<svg viewBox="0 0 512 512" ><path d="M256 68.4C152.4 68.4 68.4 152.4 68.4 256c0 103.6 84 187.6 187.6 187.6S443.6 359.6 443.6 256C443.6 152.4 359.6 68.4 256 68.4zM410.6 247.3c-40.3-6.6-77.3-7-111-1.1 -3.8-8.8-7.8-17.6-12-26.3 36.1-15.6 65.1-36.9 86.7-63.8C395.4 181 408.6 212.6 410.6 247.3zM350.5 133.4c-18.8 24.3-44.8 43.5-78 57.5 -15.9-29.1-34-57.5-54.5-85 12.2-3.1 24.9-4.9 38-4.9C291.6 101 324.3 113.2 350.5 133.4zM186.1 117.9c20.8 27.2 39.3 55.3 55.3 84.1 -38 11.2-83.4 16.9-135.8 17.3C116.4 175 146.3 138.1 186.1 117.9zM101 256c0-1.3 0.2-2.7 0.2-4 60.2-0.1 112.1-7 155.6-20.7 3.6 7.4 7.1 14.9 10.5 22.4 -52.8 16.5-96.4 50.4-130.3 101.3C114.5 328.2 101 293.6 101 256zM160.9 378.1c30.8-48.3 70.1-79.7 118.8-94.2 14.5 37.8 25.2 76.8 31.9 116.6 -17.3 6.7-36 10.5-55.6 10.5C220.1 411 187.2 398.6 160.9 378.1zM342 384.8c-6.9-36.8-16.9-72.8-30-107.8 29.3-4.1 61.6-3.1 96.9 3.1C402.1 323.6 377.2 361.3 342 384.8z"/></svg>